<?xml version="1.0" encoding="UTF-8" standalone="no"?>

<svg
   version="1.1"
   id="svg292"
   width="14mm"
   height="14mm"
   viewBox="0 0 52.913386 52.913386"
   sodipodi:docname="githubDraft.svg"
   inkscape:version="1.1.2 (0a00cf5339, 2022-02-04)"
   xmlns:inkscape="http://www.inkscape.org/namespaces/inkscape"
   xmlns:sodipodi="http://sodipodi.sourceforge.net/DTD/sodipodi-0.dtd"
   xmlns="http://www.w3.org/2000/svg"
   xmlns:svg="http://www.w3.org/2000/svg">
  <sodipodi:namedview
     id="namedview2855"
     pagecolor="#ffffff"
     bordercolor="#666666"
     borderopacity="1.0"
     inkscape:pageshadow="2"
     inkscape:pageopacity="0.0"
     inkscape:pagecheckerboard="0"
     showgrid="false"
     units="mm"
     inkscape:zoom="4.7589286"
     inkscape:cx="59.362101"
     inkscape:cy="12.292683"
     inkscape:window-width="1358"
     inkscape:window-height="742"
     inkscape:window-x="1"
     inkscape:window-y="17"
     inkscape:window-maximized="0"
     inkscape:current-layer="layer1"
     inkscape:document-units="mm" />
  <defs
     id="defs296" />
  <g
     id="g298" />
  <g
     id="layer1">
    <path
       style="fill:#ff0000"
       id="path429"
       d="m 295.12867,277.68143 a 11.743783,11.924024 0 0 1 -1.1e-4,0.0512 l -11.74367,-0.0512 z" />
    <path
       style="fill:#030000;fill-opacity:1;stroke:none;stroke-width:0.0898769px;stroke-linecap:butt;stroke-linejoin:miter;stroke-opacity:0"
       d="m 22.611401,36.36857 -2.886751,-0.514232 -1.754197,-0.706163 -1.347425,-0.787935 -1.439284,-1.392887 -0.4988,-0.795617 -0.669725,-1.316829 -0.467254,
-1.393891 -0.285136,-1.917445 -0.02737,-0.761653 0.0016,-1.927251 0.390559,-1.946079 0.535792,-1.116791 0.732686,-1.110823 0.451518,-0.530219 -0.376382,
-1.174043 -0.09115,-0.760935 -0.01074,-0.971342 0.0457,-0.652365 0.270238,-1.14475 0.194432,-0.581983 0.173472,-0.344083 0.708642,-0.04395 0.788653,
0.163777 0.908438,0.291675 0.60846,0.254672 0.740045,0.323016 0.804189,0.439295 0.602564,0.412077 0.475866,0.305806 1.026257,-0.183019 1.169978,-0.279236 0.936464,
-0.103965 0.90659,-0.08095 2.557279,-0.03555 1.268194,0.16844 1.212167,0.138326 1.43217,0.391017 0.97861,-0.677981 1.071336,-0.586405 0.798577,-0.30203 0.888814,
-0.432767 0.944176,-0.246005 0.691506,-0.02348 0.288322,0.131231 0.23923,0.517401 0.188265,0.77837 0.174997,0.842131 -0.0016,2.094155 -0.133283,0.563208 -0.242729,
0.852872 0.786942,0.978781 0.555096,0.896003 0.386245,1.088084 0.291856,1.145454 0.114297,0.861377 -5.2e-5,2.028207 -0.250524,1.644618 -0.518047,1.857222 -0.677106,
1.449126 -0.740855,1.020938 -1.057861,1.013918 -0.87801,0.547982 -0.837802,0.491579 -1.124201,0.469858 -1.049893,0.309704 -0.901357,0.125427 -0.693169,
0.13867 -0.701729,0.100164 0.519412,0.71705 0.46309,0.839696 0.287906,1.095912 0.09818,1.338999 -0.0041,6.144215 0.220555,0.429478 0.371249,0.224608 0.563052,
0.09365 0.731936,-0.228418 1.406024,-0.620452 1.403641,-0.715846 1.101414,-0.575816 1.391512,-1.030179 1.146125,-0.922589 1.068329,-1.036955 1.175782,
-1.273075 0.954697,-1.261497 0.621221,-0.938613 0.670206,-1.059457 0.562683,-1.055807 0.399019,-0.821665 0.620791,-1.596539 0.432634,-1.312007 0.351159,
-1.565822 0.27488,-2.160893 0.123547,-1.754881 V 26.092791 L 47.105064,24.259932 46.851425,22.667647 46.447292,21.024738 45.892424,19.325279 45.262657,
17.85331 44.667466,16.591479 44.128928,15.667476 43.647406,14.928769 42.494188,13.414311 41.638465,12.437413 40.664189,11.413202 39.670917,10.517214 38.612782,
9.6840552 36.939392,8.5595783 35.538198,7.8097761 34.540332,7.347405 33.317485,6.8492882 32.188003,6.5049347 31.151754,6.191413 29.955607,5.9997529 28.683975,
5.8273067 27.401352,5.7007114 25.840249,5.6692913 24.494751,5.7502138 23.299303,5.890588 21.559334,6.243959 20.036605,6.6967354 18.826454,7.1746975 17.12278,
7.94599 l -1.126468,0.6315157 -0.847066,0.4562208 -0.942733,0.7196012 -1.105909,0.8647883 -0.964333,0.869962 -0.846868,0.964524 -0.959783,1.056603 -0.7625514,
1.034168 -0.5847176,0.897965 -0.7428932,1.19269 -0.3556984,0.784012 -0.54765,1.110707 -0.4073449,1.031691 -0.3989364,1.157644 -0.2280735,0.854164 -0.354361,
1.702126 -0.1493928,1.170326 -0.1127722,1.338886 -0.015937,2.135844 0.1136729,1.555067 0.2134876,1.469438 0.3435134,1.554072 0.2563446,1.007403 0.3619726,
0.967796 0.7132087,1.690198 0.6831015,1.26714 0.7042804,1.210228 0.6983421,1.030684 0.8632666,1.095867 0.851512,0.957927 0.913956,0.887938 0.902258,0.845371 1.077776,
0.867998 0.808159,0.523436 1.378762,0.880977 0.937211,0.440256 1.033926,0.498492 0.757908,0.293552 0.698991,0.216536 0.540851,0.0615 0.303144,-0.118141 0.250968,
-0.229701 0.167367,-0.371564 0.08924,-0.400015 -0.04571,-0.686736 0.01989,-1.081838 -0.04544,-0.931736 -0.0273,-1.26924 -1.216741,0.231399 -1.183494,
-0.01109 -1.14096,-0.100956 -1.215359,-0.302768 -0.910605,-0.509347 -0.69098,-0.713385 -0.493246,-0.718956 -0.291302,-0.877391 -0.374141,-0.73507 -0.515699,
-0.766712 -0.7284,-0.739074 -0.568574,-0.408588 -0.441162,-0.449667 -0.246055,-0.306523 -0.02009,-0.208914 0.105392,-0.137377 0.187538,-0.09093 0.297781,
-0.02377 0.466114,-0.02349 0.489044,0.151151 0.657467,0.219634 0.529066,0.395418 0.383935,0.276087 0.494704,0.514757 0.388494,0.491469 0.475916,
0.676266 0.371712,0.614655 0.549649,0.47654 0.637604,0.38543 0.775139,0.295665 0.772983,0.02737 0.868142,-0.05821 0.606398,-0.08298 0.457633,-0.161102 0.622944,
-0.247959 0.09922,-0.687345 0.138625,-0.493095 0.32103,-0.709844 0.181386,-0.312989 0.272434,-0.296013 z"
       id="path924" />
  </g>
</svg>
