<svg xmlns="http://www.w3.org/2000/svg" xmlns:xlink="http://www.w3.org/1999/xlink" width="670.622" height="459.597" viewBox="0 0 670.622 459.597">
  <defs>
    <linearGradient id="linear-gradient" x1="0.281" y1="0.3" x2="0.742" y2="0.298" gradientUnits="objectBoundingBox">
      <stop offset="0" stop-color="#80a2c4"/>
      <stop offset="1" stop-color="#cae6eb"/>
    </linearGradient>
  </defs>
  <path id="パス_140" data-name="パス 140" d="M198.931-129.622v-6.668c0-29.389-22.474-53.1-52.851-53.1H90.266c-20,0-32.846-12.6-32.846-31.365v-6.174c0-18.028,13.089-31.118,32.6-31.118h90.636c5.927,0,9.138-2.47,9.138-10.373,0-7.656-3.211-10.373-9.138-10.373H89.031c-29.636,0-52.851,21.98-52.851,51.122v6.915c0,29.142,21.733,51.863,53.1,51.863h56.308c19.263,0,32.6,14.077,32.6,32.6v5.927c0,18.028-12.348,31.365-32.846,31.365H50.5c-5.927,0-8.891,2.717-8.891,10.373,0,7.9,2.964,10.373,8.891,10.373H146.08C176.7-78.253,198.931-100.48,198.931-129.622Zm151.481,1.039v-38.033c0-27.413-20.745-51.369-52.6-51.369h-25.19c-31.612,0-52.851,23.709-52.851,51.369L219.709,85.8c0,5.927,3.476,8.41,11.132,8.41,7.409,0,9.119-2.483,9.119-8.41l.058-163.015h58.531C326.456-77.214,350.412-99.441,350.412-128.582Zm-20.5-2.47c0,19.016-16.053,34.081-34.822,34.081H240.018V-163.9c0-18.522,15.065-34.328,35.316-34.328H294.6c20.992,0,35.316,15.806,35.316,34.328Zm63.073,44.431-.343-269.627c0-5.927-2.717-9.138-10.62-9.138s-10.373,3.211-10.373,9.138l.343,269.627c0,5.927,2.47,8.891,10.373,8.891S392.987-80.694,392.987-86.621ZM458.2-248.543V-356.271c0-5.927-2.717-9.114-10.126-9.114-7.656,0-10.126,3.187-10.126,9.114v107.728c0,5.927,2.47,8.644,10.126,8.644C455.488-239.9,458.2-242.615,458.2-248.543Zm.14,162.169V-217.839c0-5.927-2.717-8.891-10.126-8.891-7.656,0-10.126,3.211-10.126,9.138V-86.374c0,5.927,2.47,8.644,10.126,8.644C455.628-77.73,458.344-80.447,458.344-86.374Zm108.6-130.478c0-7.409-2.964-9.879-8.644-9.879H527.919l-.193-129.517c0-5.927-2.717-9.138-10.372-9.138-7.9,0-10.373,3.211-10.373,9.138l.193,129.517H475.562c-5.68,0-8.4,2.47-8.4,9.879s2.717,9.879,8.4,9.879h31.612l.051,120.352c0,5.927,2.47,8.891,10.373,8.891,7.656,0,10.372-2.964,10.372-8.891l-.051-120.352H558.3C563.976-206.973,566.94-209.442,566.94-216.851ZM706.8-179.461v-9.879c0-21.486-16.3-37.292-37.786-37.292H609.745c-21.486,0-38.033,16.547-38.033,38.033v73.1c0,21.486,16.794,37.539,38.28,37.539h85.45c4.2,0,7.656-3.7,7.656-9.385s-3.457-9.385-7.656-9.385h-82.98c-11.607,0-20.5-8.644-20.5-20.992v-24.2h77.053C690.5-141.922,706.8-158.222,706.8-179.461Zm-20.251,0c0,11.854-8.644,20.745-20.5,20.745h-74.09v-28.648c0-11.854,8.891-20.5,20.5-20.5h53.591c11.854,0,20.5,8.644,20.5,20.5Z" transform="translate(-36.181 365.385)" fill="url(#linear-gradient)"/>
</svg>
