<?xml version="1.0" encoding="utf-8"?>
<!-- Generator: Adobe Illustrator 22.1.0, SVG Export Plug-In . SVG Version: 6.00 Build 0)  -->
<svg version="1.1" id="Layer_1" xmlns="http://www.w3.org/2000/svg" xmlns:xlink="http://www.w3.org/1999/xlink" x="0px" y="0px"
	 viewBox="0 0 32 32" style="enable-background:new 0 0 32 32;" xml:space="preserve">
<title>mysql</title>
<path d="M21.9,7.6c-0.2,0-0.3,0-0.4,0v0h0c0.1,0.1,0.2,0.2,0.3,0.4c0.1,0.1,0.1,0.3,0.2,0.4l0,0c0.1-0.1,0.2-0.2,0.2-0.4
	c-0.1-0.1-0.1-0.1-0.1-0.2C22.1,7.7,21.9,7.6,21.9,7.6z M7.7,25.2H6.5c0-2.1-0.2-4-0.4-5.9h0l-1.9,5.9H3.3l-1.9-5.9h0
	C1.3,21,1.2,23,1.1,25.2H0c0.1-2.6,0.3-5.1,0.5-7.4h1.5l1.8,5.4h0l1.8-5.4h1.5C7.4,20.5,7.6,22.9,7.7,25.2L7.7,25.2z M13,19.7
	c-0.5,2.7-1.2,4.7-2,5.9c-0.6,1-1.3,1.4-2.1,1.4c-0.2,0-0.5-0.1-0.8-0.2v-0.7c0.2,0,0.3,0,0.5,0c0.4,0,0.6-0.1,0.9-0.3
	c0.3-0.2,0.4-0.5,0.4-0.8c0-0.2-0.1-0.6-0.3-1.3l-1.3-4.2h1.2l1,3.1c0.2,0.7,0.3,1.2,0.3,1.5c0.5-1.4,0.9-3,1.1-4.6L13,19.7z
	 M29.5,25.2H26v-7.4h1.2v6.5h2.3L29.5,25.2z M25.1,25.3l-1.4-0.7c0.1-0.1,0.2-0.2,0.3-0.3c0.6-0.7,0.9-1.7,0.9-3
	c0-2.4-1-3.7-2.9-3.7c-0.9,0-1.7,0.3-2.2,0.9c-0.6,0.7-0.9,1.7-0.9,3c0,1.3,0.3,2.2,0.8,2.9c0.5,0.5,1.2,0.8,2.1,0.8
	c0.3,0,0.7,0,1-0.1l1.8,1L25.1,25.3L25.1,25.3z M20.7,23.7c-0.3-0.5-0.4-1.2-0.4-2.3c0-1.9,0.6-2.8,1.7-2.8c0.6,0,1,0.2,1.3,0.7
	c0.3,0.5,0.4,1.2,0.4,2.3c0,1.9-0.6,2.8-1.7,2.8C21.4,24.4,20.9,24.1,20.7,23.7L20.7,23.7z M18.5,23.1c0,0.6-0.2,1.1-0.7,1.5
	c-0.5,0.4-1.1,0.6-1.8,0.6c-0.7,0-1.4-0.2-2.1-0.7l0.3-0.6c0.6,0.3,1.1,0.4,1.6,0.4c0.4,0,0.8-0.1,1-0.3c0.2-0.2,0.4-0.5,0.4-0.8
	c0-0.4-0.3-0.8-0.9-1.1c-0.5-0.3-1.6-0.9-1.6-0.9c-0.6-0.4-0.8-0.8-0.8-1.6c0-0.6,0.2-1.1,0.6-1.4c0.4-0.4,1-0.6,1.6-0.6
	c0.7,0,1.3,0.2,1.9,0.5l-0.3,0.6c-0.5-0.2-1-0.3-1.4-0.3c-0.4,0-0.7,0.1-0.9,0.3s-0.3,0.4-0.3,0.7c0,0.4,0.3,0.8,0.9,1.1
	c0.5,0.3,1.6,0.9,1.6,0.9C18.2,22,18.5,22.4,18.5,23.1L18.5,23.1z M31,15.3c-0.7,0-1.3,0.1-1.7,0.3c-0.1,0.1-0.3,0.1-0.4,0.2
	c0.1,0.1,0.1,0.2,0.1,0.3c0.1,0.2,0.3,0.4,0.5,0.5c0.2,0.1,0.4,0.3,0.6,0.4c0.3,0.2,0.7,0.3,1.1,0.6c0.2,0.1,0.4,0.3,0.6,0.4
	c0.1,0.1,0.2,0.2,0.3,0.2v0c-0.1-0.1-0.1-0.2-0.1-0.3c-0.1-0.1-0.2-0.2-0.3-0.3c-0.3-0.3-0.6-0.7-0.9-0.9c-0.3-0.2-0.9-0.5-1-0.8
	l0,0c0.2,0,0.4-0.1,0.6-0.1c0.3-0.1,0.6-0.1,0.9-0.1c0.1,0,0.3-0.1,0.4-0.1v-0.1c-0.2-0.2-0.3-0.4-0.4-0.5c-0.5-0.4-1-0.8-1.5-1.1
	c-0.3-0.2-0.6-0.3-0.9-0.4c-0.1-0.1-0.3-0.1-0.3-0.2c-0.2-0.2-0.3-0.5-0.4-0.7c-0.3-0.5-0.5-1-0.7-1.6c-0.2-0.3-0.3-0.7-0.5-1
	c-0.9-1.5-1.9-2.4-3.4-3.3c-0.3-0.2-0.7-0.3-1.1-0.4c-0.2,0-0.4,0-0.7,0c-0.1-0.1-0.3-0.2-0.4-0.3c-0.5-0.3-1.8-1-2.2-0.1
	c-0.2,0.6,0.4,1.2,0.6,1.4c0.2,0.2,0.3,0.4,0.5,0.7C20,8.1,20,8.3,20.1,8.4c0.1,0.4,0.3,0.8,0.5,1.2c0.1,0.2,0.2,0.4,0.3,0.6
	c0.1,0.1,0.2,0.1,0.2,0.3c-0.1,0.2-0.1,0.4-0.2,0.7c-0.3,1-0.2,2.3,0.3,3c0.1,0.2,0.5,0.7,0.9,0.5c0.4-0.2,0.3-0.7,0.4-1.1
	c0-0.1,0-0.2,0.1-0.2v0c0.1,0.2,0.3,0.5,0.4,0.7c0.3,0.4,0.8,0.9,1.2,1.2c0.2,0.2,0.4,0.4,0.6,0.5v0h0c-0.1-0.1-0.1-0.1-0.2-0.2
	c-0.2-0.2-0.3-0.4-0.5-0.5c-0.4-0.5-0.7-1.1-1-1.6c-0.1-0.3-0.3-0.6-0.4-0.9c-0.1-0.1-0.1-0.3-0.1-0.3c-0.1,0.2-0.3,0.4-0.4,0.6
	c-0.2,0.4-0.2,0.9-0.3,1.3c0,0,0,0,0,0c-0.3-0.1-0.4-0.4-0.5-0.6c-0.3-0.6-0.3-1.7-0.1-2.4c0.1-0.2,0.3-0.8,0.2-1
	c-0.1-0.2-0.2-0.3-0.3-0.4c-0.1-0.2-0.2-0.4-0.3-0.6c-0.2-0.5-0.3-1.1-0.6-1.6c-0.1-0.2-0.3-0.5-0.4-0.7c-0.2-0.2-0.4-0.4-0.5-0.7
	c0-0.1-0.1-0.3,0-0.4c0-0.1,0.1-0.1,0.1-0.1c0.1-0.1,0.4,0,0.6,0.1c0.3,0.1,0.6,0.3,0.9,0.4c0.1,0.1,0.3,0.3,0.4,0.3h0.2
	c0.3,0.1,0.6,0,0.9,0.1c0.5,0.2,0.9,0.4,1.3,0.6c1.2,0.7,2.1,1.8,2.8,3.1c0.1,0.2,0.2,0.4,0.3,0.6c0.2,0.4,0.4,0.9,0.6,1.3
	s0.4,0.8,0.6,1.2c0.1,0.2,0.7,0.3,0.9,0.4c0.2,0.1,0.5,0.2,0.6,0.2c0.3,0.2,0.6,0.4,0.9,0.6C30.5,14.9,30.9,15.1,31,15.3L31,15.3z"
	/>
</svg>
