<?xml version="1.0" encoding="utf-8"?>
<!-- Generator: Adobe Illustrator 22.1.0, SVG Export Plug-In . SVG Version: 6.00 Build 0)  -->
<svg version="1.1" id="Layer_1" xmlns="http://www.w3.org/2000/svg" xmlns:xlink="http://www.w3.org/1999/xlink" x="0px" y="0px"
	 viewBox="0 0 32 32" style="enable-background:new 0 0 32 32;" xml:space="preserve">
<title>rails</title>
<path d="M27.8,21.1v1.5h2.6c0.5,0,1.5-0.4,1.5-1.6v-0.6c0-1-0.8-1.6-1.5-1.6h-1.3v-0.7h2.6v-1.6h-2.5c-0.6,0-1.5,0.6-1.5,1.6v0.5
	c0,1.1,0.9,1.6,1.5,1.6c1.8,0-0.4,0,1.2,0v0.8L27.8,21.1z M13.7,20.7c0,0,1.4-0.1,1.4-2.1c0-1.9-1.7-2.1-1.7-2.1h-3.1v6.1h1.6v-1.5
	l1.3,1.5h2.3L13.7,20.7z M13.1,19.5h-1.2v-1.4h1.2c0,0,0.3,0.1,0.3,0.7S13.1,19.5,13.1,19.5L13.1,19.5z M18.9,16.6h-1.6
	c-1.1,0-1.5,1.1-1.5,1.6v4.5h1.6v-1.1h1.5v1.1h1.5v-4.5C20.4,16.9,19.3,16.6,18.9,16.6z M18.9,19.8h-1.5v-1.5c0,0,0-0.3,0.5-0.3h0.5
	c0.4,0,0.4,0.3,0.4,0.3L18.9,19.8L18.9,19.8z M21.2,16.6h1.6v6.1h-1.6V16.6z M25.1,21.1v-4.5h-1.6v6.1h3.8v-1.6H25.1z M0.6,22.6h6.4
	c0,0-1.2-5.9,2.8-8.3c0.9-0.5,3.7-2.2,8.3,1.4c0.1-0.1,0.3-0.2,0.3-0.2s-4.2-4.4-8.9-4c-2.4,0.2-5.2,2.5-6.9,5.5S0.6,22.6,0.6,22.6
	L0.6,22.6z M0.6,22.6h6.4c0,0-1.2-5.9,2.8-8.3c0.9-0.5,3.7-2.2,8.3,1.4c0.1-0.1,0.3-0.2,0.3-0.2s-4.2-4.4-8.9-4
	c-2.4,0.2-5.2,2.5-6.9,5.5S0.6,22.6,0.6,22.6L0.6,22.6z M0.6,22.6h6.4c0,0-1.2-5.9,2.8-8.3c0.9-0.5,3.7-2.2,8.3,1.4
	c0.1-0.1,0.3-0.2,0.3-0.2s-4.2-4.4-8.9-4c-2.4,0.2-5.3,2.5-7,5.5C0.8,20.1,0.6,22.6,0.6,22.6z M13.9,12.1l0-0.6
	c-0.1,0-0.3-0.1-0.8-0.3l0,0.6C13.3,11.9,13.6,12,13.9,12.1L13.9,12.1z M13.1,13.9l0,0.5c0.3,0,0.5,0,0.8,0.1l0-0.5
	C13.6,13.9,13.4,13.9,13.1,13.9z M10.1,11.2L10.1,11.2L10,10.7c-0.2,0-0.5,0-0.8,0l0.2,0.5C9.6,11.2,9.9,11.2,10.1,11.2z M10.5,14.4
	l0.2,0.6c0.2-0.1,0.5-0.2,0.7-0.3l-0.2-0.6C10.9,14.2,10.7,14.3,10.5,14.4z M6.8,12.1l-0.4-0.6c-0.2,0.1-0.4,0.2-0.6,0.4l0.4,0.6
	C6.4,12.4,6.6,12.2,6.8,12.1z M8.5,16l0.4,0.6C9,16.4,9.2,16.2,9.3,16L9,15.4C8.8,15.6,8.6,15.8,8.5,16L8.5,16z M7.3,18.7L8,19.3
	c0-0.3,0.1-0.7,0.2-1l-0.6-0.5C7.4,18.1,7.4,18.4,7.3,18.7z M3.8,14.7l-0.6-0.5c-0.2,0.2-0.4,0.4-0.6,0.6l0.6,0.6
	C3.4,15.1,3.6,14.9,3.8,14.7L3.8,14.7z M1.3,18.5l-0.9-0.4c-0.2,0.4-0.3,0.8-0.4,1l0.9,0.4C1,19.2,1.2,18.8,1.3,18.5z M7.2,20.9
	c0,0.5,0.1,0.8,0.1,1.1l1,0.4c-0.1-0.3-0.1-0.7-0.2-1.1L7.2,20.9z"/>
</svg>
